<svg width="21" height="21" viewBox="0 0 21 21" fill="none" xmlns="http://www.w3.org/2000/svg">
<g clip-path="url(#clip0_5_2345)">
<mask id="path-1-inside-1_5_2345" fill="white">
<path d="M19.1069 5.31364C19.1069 4.39697 18.3569 3.64697 17.4402 3.64697H4.10685C3.19019 3.64697 2.44019 4.39697 2.44019 5.31364V15.3136C2.44019 16.2303 3.19019 16.9803 4.10685 16.9803H17.4402C18.3569 16.9803 19.1069 16.2303 19.1069 15.3136V5.31364ZM17.4402 5.31364L10.7735 9.48031L4.10685 5.31364H17.4402ZM17.4402 15.3136H4.10685V6.98031L10.7735 11.147L17.4402 6.98031V15.3136Z"/>
</mask>
<path d="M17.4402 5.31364L18.5002 7.00964L24.4138 3.31364H17.4402V5.31364ZM10.7735 9.48031L9.71352 11.1763L10.7735 11.8388L11.8335 11.1763L10.7735 9.48031ZM4.10685 5.31364V3.31364H-2.86674L3.04685 7.00964L4.10685 5.31364ZM17.4402 15.3136V17.3136H19.4402V15.3136H17.4402ZM4.10685 15.3136H2.10685V17.3136H4.10685V15.3136ZM4.10685 6.98031L5.16685 5.28431L2.10685 3.37181V6.98031H4.10685ZM10.7735 11.147L9.71352 12.843L10.7735 13.5055L11.8335 12.843L10.7735 11.147ZM17.4402 6.98031H19.4402V3.37181L16.3802 5.28431L17.4402 6.98031ZM21.1069 5.31364C21.1069 3.2924 19.4614 1.64697 17.4402 1.64697V5.64697C17.2523 5.64697 17.1069 5.50154 17.1069 5.31364H21.1069ZM17.4402 1.64697H4.10685V5.64697H17.4402V1.64697ZM4.10685 1.64697C2.08562 1.64697 0.440186 3.2924 0.440186 5.31364H4.44019C4.44019 5.50154 4.29475 5.64697 4.10685 5.64697V1.64697ZM0.440186 5.31364V15.3136H4.44019V5.31364H0.440186ZM0.440186 15.3136C0.440186 17.3349 2.08562 18.9803 4.10685 18.9803V14.9803C4.29475 14.9803 4.44019 15.1257 4.44019 15.3136H0.440186ZM4.10685 18.9803H17.4402V14.9803H4.10685V18.9803ZM17.4402 18.9803C19.4614 18.9803 21.1069 17.3349 21.1069 15.3136H17.1069C17.1069 15.1257 17.2523 14.9803 17.4402 14.9803V18.9803ZM21.1069 15.3136V5.31364H17.1069V15.3136H21.1069ZM16.3802 3.61764L9.71352 7.78431L11.8335 11.1763L18.5002 7.00964L16.3802 3.61764ZM11.8335 7.78431L5.16685 3.61764L3.04685 7.00964L9.71352 11.1763L11.8335 7.78431ZM4.10685 7.31364H17.4402V3.31364H4.10685V7.31364ZM17.4402 13.3136H4.10685V17.3136H17.4402V13.3136ZM6.10685 15.3136V6.98031H2.10685V15.3136H6.10685ZM3.04685 8.6763L9.71352 12.843L11.8335 9.45098L5.16685 5.28431L3.04685 8.6763ZM11.8335 12.843L18.5002 8.6763L16.3802 5.28431L9.71352 9.45098L11.8335 12.843ZM15.4402 6.98031V15.3136H19.4402V6.98031H15.4402Z" fill="#BFBFBF" mask="url(#path-1-inside-1_5_2345)"/>
</g>
<defs>
<clipPath id="clip0_5_2345">
<rect width="20" height="20" fill="white" transform="translate(0.773438 0.313721)"/>
</clipPath>
</defs>
</svg>
